<?xml version="1.0" standalone="no"?>
<!DOCTYPE svg PUBLIC "-//W3C//DTD SVG 20010904//EN"
 "http://www.w3.org/TR/2001/REC-SVG-20010904/DTD/svg10.dtd">
<svg version="1.0" xmlns="http://www.w3.org/2000/svg"
 width="8149.000000pt" height="9251.000000pt" viewBox="0 0 8149.000000 9251.000000"
 preserveAspectRatio="xMidYMid meet">
<metadata>
Created by potrace 1.16, written by Peter Selinger 2001-2019
</metadata>
<g transform="translate(0.000000,9251.000000) scale(0.100000,-0.100000)"
fill="#000000" stroke="none">
<path d="M61490 92405 c-720 -135 -1150 -207 -1825 -304 -1051 -152 -2577
-364 -3850 -536 -390 -52 -746 -102 -790 -111 -546 -107 -913 -388 -1169 -894
-35 -69 -121 -273 -191 -455 -168 -436 -390 -986 -623 -1545 -104 -250 -299
-716 -432 -1035 -274 -655 -473 -1149 -645 -1595 -184 -478 -267 -623 -469
-825 -138 -138 -239 -209 -420 -296 -185 -89 -317 -129 -881 -269 -985 -245
-1603 -408 -3570 -945 -1474 -402 -1727 -470 -2450 -660 -258 -68 -517 -140
-575 -160 -289 -101 -589 -297 -800 -522 -183 -196 -311 -375 -547 -773 -346
-580 -600 -985 -1268 -2020 -899 -1394 -1082 -1695 -1315 -2165 -160 -324
-491 -1018 -486 -1022 2 -2 2077 370 4611 827 2535 457 4614 830 4620 828 8
-2 -40 -127 -127 -338 -1563 -3755 -2578 -6323 -3451 -8730 -1872 -5158 -3052
-9528 -3716 -13760 -73 -464 -122 -810 -119 -831 2 -18 24 0 120 99 124 128
248 288 340 437 68 112 249 438 533 960 389 715 566 1021 861 1486 1269 2001
2609 3779 4013 5324 591 650 1396 1462 2011 2026 223 204 467 421 1005 890
919 802 1369 1187 1886 1614 140 115 515 426 834 690 974 808 1394 1144 1891
1517 1227 921 2276 1528 3349 1941 361 138 649 230 1122 356 164 44 552 152
863 241 845 241 1143 315 1770 439 2166 427 3918 424 5478 -11 877 -244 1662
-606 2447 -1129 1604 -1068 2625 -2000 3303 -3014 359 -538 596 -1033 817
-1705 1015 -3095 1438 -6070 1270 -8935 -142 -2424 -698 -4753 -1684 -7052
-393 -919 -826 -1768 -1461 -2863 -2578 -4450 -5718 -8202 -9515 -11371 -115
-96 -428 -352 -695 -569 -3872 -3146 -7165 -5991 -10225 -8835 -1291 -1200
-2319 -2233 -3371 -3390 -2334 -2566 -4403 -5361 -6074 -8205 -95 -162 -210
-358 -255 -435 -107 -182 -186 -291 -496 -685 -140 -179 -266 -340 -279 -357
-13 -18 -25 -32 -26 -30 -1 1 -50 155 -109 342 -59 187 -257 792 -440 1345
-456 1374 -592 1814 -750 2435 -127 495 -175 733 -320 1565 -463 2656 -783
5205 -950 7565 -153 2172 -211 4580 -186 7750 6 787 11 1896 11 2465 0 1332
14 2042 55 2775 73 1298 217 2319 476 3358 123 493 159 724 193 1217 35 509
33 595 -17 710 -14 33 -193 350 -213 379 -2 2 -36 -21 -76 -51 -40 -30 -104
-76 -143 -103 -84 -59 -168 -137 -195 -181 -11 -17 -52 -141 -91 -275 -97
-336 -190 -645 -404 -1339 -410 -1330 -553 -1840 -704 -2505 -128 -569 -190
-947 -270 -1650 -343 -3001 -592 -6346 -776 -10395 -165 -3649 -152 -6331 46
-8895 133 -1736 344 -3299 664 -4909 73 -371 109 -597 160 -1016 20 -162 51
-416 70 -565 19 -148 33 -270 32 -271 -3 -3 -421 254 -469 287 -139 97 -1844
1450 -2598 2063 -2726 2213 -4929 4191 -6727 6039 -721 741 -1877 1954 -2404
2522 -911 983 -1639 1835 -2239 2620 -467 610 -678 884 -1124 1453 -916 1172
-1301 1682 -1713 2272 -668 957 -1172 1816 -1559 2658 -113 246 -161 335 -253
474 -282 425 -655 763 -1001 906 -42 17 -224 68 -405 112 -1300 323 -2502 716
-3680 1205 -1007 418 -2036 930 -2970 1478 -378 222 -640 332 -1115 469 -267
76 -333 75 -506 -7 -108 -52 -183 -119 -215 -190 -30 -67 -37 -212 -16 -312
25 -118 57 -178 201 -387 76 -110 348 -508 604 -885 1348 -1986 1680 -2435
2781 -3756 786 -943 1310 -1553 3511 -4090 600 -691 1478 -1714 1845 -2150
961 -1141 1748 -1992 2686 -2904 1905 -1854 3899 -3515 7119 -5930 1898 -1424
3235 -2368 6980 -4931 2451 -1677 3393 -2329 3578 -2478 180 -145 339 -321
416 -462 19 -36 73 -162 120 -280 187 -476 372 -1017 651 -1900 265 -840 392
-1222 550 -1655 521 -1429 1076 -2458 1777 -3299 401 -480 813 -861 1348
-1246 102 -73 282 -208 400 -300 639 -495 889 -650 1235 -766 202 -67 283 -79
545 -78 266 0 337 10 570 86 884 285 1602 824 2105 1578 325 488 563 1044 728
1705 85 341 113 576 104 880 -25 804 -374 1542 -1109 2342 -217 237 -856 849
-2053 1968 -341 318 -650 609 -687 647 -290 292 -331 573 -128 881 26 40 177
225 336 412 409 481 770 910 1634 1940 1995 2381 2833 3356 3845 4475 1017
1125 1833 1989 2680 2836 1210 1210 2007 1929 3535 3190 918 757 1750 1424
3770 3019 1454 1148 2106 1669 2910 2324 2539 2068 4792 4115 7564 6871 1122
1116 1928 1940 2418 2472 2455 2667 4628 5837 6593 9618 1329 2557 2117 5247
2349 8020 54 640 70 1060 70 1805 0 640 -7 893 -39 1415 -95 1516 -360 3179
-720 4517 -764 2838 -2151 5391 -4205 7738 -915 1046 -1817 1888 -2780 2595
-1204 885 -2482 1544 -3875 2000 -737 241 -1722 477 -2600 624 -775 129 -1386
196 -2235 246 -480 29 -1533 23 -2075 -11 -1829 -113 -3572 -470 -5380 -1101
-498 -174 -955 -354 -1630 -643 -775 -332 -1148 -499 -3518 -1579 -357 -162
-657 -298 -669 -302 -18 -5 -19 -3 -13 28 4 18 27 92 50 163 57 171 53 165
1039 2173 599 1220 807 1689 1227 2767 200 513 499 968 829 1262 508 455 1126
681 2055 753 72 6 375 17 675 25 2245 61 4461 160 7705 345 733 42 3402 196
3970 230 364 21 401 28 546 100 117 58 196 115 295 214 87 88 98 105 326 491
766 1301 1423 2438 2110 3655 794 1407 829 1471 940 1775 55 148 288 851 288
869 1 6 -50 20 -112 32 -62 12 -239 52 -393 89 -420 100 -532 117 -755 118
l-185 1 -690 -117 c-2826 -482 -4043 -696 -8340 -1467 -2466 -443 -2734 -492
-4448 -816 -626 -118 -1143 -211 -1150 -208 -7 4 -52 41 -100 82 l-88 74 20
33 c11 19 1035 1658 2275 3643 1241 1986 2256 3613 2256 3616 0 12 -54 3 -600
-99z m-6060 -3171 c0 -7 -1509 -3196 -1515 -3202 -1 -2 -58 24 -125 58 -119
60 -121 61 -107 83 47 73 156 275 206 384 89 195 151 353 306 779 172 472 230
614 346 849 160 326 301 526 529 756 165 166 360 324 360 293z m15056 -3706
c-26 -29 -101 -120 -168 -203 -160 -197 -242 -279 -310 -309 -45 -21 -123 -33
-523 -80 -869 -102 -1424 -161 -3030 -321 -925 -92 -1124 -115 -1565 -180
-1814 -266 -3154 -418 -3865 -440 l-170 -5 80 19 c44 10 294 62 555 114 459
93 671 134 1990 382 338 64 874 168 1190 232 316 63 598 120 625 125 48 10
5180 714 5218 717 14 1 8 -12 -27 -51z m-19714 -2547 c27 -68 48 -125 46 -126
-11 -9 -302 -125 -424 -168 -623 -225 -1233 -359 -2564 -562 -1380 -211 -1979
-343 -2637 -583 l-111 -40 -32 131 c-18 73 -33 136 -34 141 -1 9 5666 1335
5693 1333 7 -1 35 -57 63 -126z m21 -4953 c-36 -84 -187 -434 -335 -778 -640
-1484 -692 -1614 -1866 -4730 -934 -2478 -1400 -3676 -1912 -4914 -141 -343
-211 -525 -370 -961 -296 -816 -495 -1244 -766 -1650 -144 -216 -255 -355
-424 -528 -125 -129 -356 -335 -364 -326 -3 2 254 659 570 1459 3077 7792
4863 12291 4892 12324 31 34 97 64 276 126 98 35 215 77 260 95 45 18 86 33
93 34 6 1 -18 -68 -54 -151z m11447 -3396 c44 -8 44 -8 15 -15 -16 -4 -131
-25 -255 -47 -1717 -312 -3456 -860 -5115 -1612 -1734 -787 -3467 -1841 -5154
-3136 -446 -342 -1017 -806 -1410 -1144 -63 -54 -116 -96 -119 -93 -8 8 137
248 230 378 399 560 1082 1189 2013 1854 1959 1399 4810 2781 7095 3438 682
196 1328 329 1820 375 63 5 133 12 155 14 72 7 679 -3 725 -12z m-24895
-54534 c9 -41 73 -505 119 -873 98 -773 164 -1389 311 -2875 251 -2540 374
-3549 586 -4815 672 -4008 1939 -7069 4078 -9852 56 -73 98 -133 94 -133 -15
1 -221 155 -354 265 -160 132 -429 393 -584 565 -1949 2172 -3390 6685 -4300
13460 -114 848 -198 1550 -345 2865 -95 850 -156 1365 -165 1392 -2 6 1 14 8
17 7 2 132 5 279 5 l268 1 5 -22z"/>
<path d="M26095 85091 c-1397 -656 -2724 -1376 -3970 -2154 -3280 -2050 -6019
-4512 -8117 -7297 -454 -603 -668 -914 -898 -1305 -1872 -3182 -3273 -5253
-4178 -6177 -334 -340 -596 -531 -802 -584 -97 -25 -210 -16 -278 21 -152 83
-262 292 -326 622 -67 346 -88 655 -116 1728 -21 806 -58 1167 -147 1440 -81
249 -195 365 -361 365 -182 0 -390 -128 -682 -420 -730 -729 -1811 -2360
-3407 -5137 -351 -612 -684 -1315 -1023 -2163 -1007 -2517 -1612 -5287 -1760
-8060 -41 -775 -41 -1803 0 -2555 209 -3794 1316 -7116 3220 -9660 781 -1044
1663 -1928 2690 -2698 193 -145 195 -146 198 -118 2 16 -11 265 -27 553 -163
2783 -228 4821 -218 6823 5 990 10 1217 37 1825 106 2371 418 3846 964 4567
399 526 919 684 1731 527 263 -51 506 -118 1097 -303 839 -263 1188 -355 1603
-425 374 -63 593 -80 968 -73 302 5 424 16 670 62 1475 272 2780 1426 3981
3517 561 978 1106 2430 1420 3786 249 1075 384 2085 448 3352 15 317 16 1408
0 1745 -54 1142 -155 2091 -343 3223 -28 167 -48 306 -45 309 8 8 348 -80 554
-143 978 -299 1857 -763 2650 -1399 486 -390 977 -883 1387 -1395 1749 -2183
2853 -5491 3099 -9295 34 -510 41 -756 41 -1410 0 -738 -12 -1040 -61 -1618
-9 -104 -13 -191 -9 -195 12 -13 961 -8 1105 6 725 68 1332 209 1960 457 724
285 1290 611 2365 1361 716 499 1020 655 1311 671 345 19 611 -198 858 -702
412 -837 781 -2477 1267 -5622 12 -79 25 -143 29 -143 11 0 285 209 505 385
474 380 855 724 1350 1220 515 514 849 885 1254 1390 1621 2023 2628 4203
2890 6255 275 2147 -260 4105 -1570 5755 -60 76 -389 411 -1076 1095 -929 927
-1192 1184 -1543 1511 -541 503 -902 785 -1125 876 -64 26 -94 33 -150 33
-116 0 -165 -47 -207 -195 -21 -76 -22 -98 -22 -410 0 -223 7 -441 22 -675 37
-589 44 -781 44 -1220 1 -776 -55 -1364 -188 -2014 -60 -293 -163 -677 -241
-904 l-19 -53 -59 198 c-681 2292 -1895 4408 -3954 6893 -432 522 -621 737
-757 862 -155 140 -486 474 -640 643 -928 1020 -1690 2246 -2276 3660 -577
1392 -967 3001 -1113 4598 -51 557 -59 761 -60 1422 0 613 5 775 41 1195 44
526 127 1092 224 1520 32 143 34 160 23 160 -5 -1 -111 -49 -238 -109z"/>
</g>
</svg>
